<svg xmlns="http://www.w3.org/2000/svg" width="84.775" height="128.309" viewBox="0 0 84.775 128.309"><defs><style>.a{fill:#ff881f;fill-rule:evenodd;}</style></defs><g transform="translate(-128 -25)"><path class="a" d="M139.388,71.957a21.98,21.98,0,0,1,0-8.5c7.62,2.818,25.121,3.011,33.165,0a21.986,21.986,0,0,1,0,8.5C164.963,74.626,147.5,74.514,139.388,71.957Z" transform="translate(14.168 49.653)"/><path class="a" d="M138.2,62.094a27.6,27.6,0,0,1-.314-3.4c-.044-1.221-.064-2.314-.064-3.272s.021-2.053.064-3.276a23.984,23.984,0,0,1,.314-3.274q1.643-.258,3.542-.392c1.265-.087,2.358-.131,3.286-.131s2.021.044,3.286.131,2.4.22,3.414.392a23.6,23.6,0,0,1,.316,3.274q.062,1.835.064,3.276c0,.958-.023,2.051-.064,3.272a27.139,27.139,0,0,1-.316,3.4,32.771,32.771,0,0,1-3.35.392c-1.221.089-2.3.133-3.224.133q-1.516,0-3.412-.133T138.2,62.094Z" transform="translate(12.684 30.142)"/><path class="a" d="M149.1,62.094a27.139,27.139,0,0,1-.314-3.4c-.046-1.221-.064-2.314-.064-3.272s.018-2.053.064-3.276a23.609,23.609,0,0,1,.314-3.274c1.1-.172,2.277-.3,3.54-.392s2.36-.131,3.286-.131,2.026.044,3.288.131,2.4.22,3.414.392a23.26,23.26,0,0,1,.314,3.274c.046,1.224.064,2.316.064,3.276s-.018,2.051-.064,3.272a26.713,26.713,0,0,1-.314,3.4,32.7,32.7,0,0,1-3.35.392q-1.835.134-3.221.133-1.519,0-3.416-.133C151.381,62.4,150.2,62.27,149.1,62.094Z" transform="translate(26.761 30.142)"/><path class="a" d="M212.276,78.968a27.644,27.644,0,0,0-3.1-.394q-1.708-.131-3.1-.128c-.923,0-1.959.041-3.1.128a27.806,27.806,0,0,0-3.1.394v31.044c0,6.177-.2,12.352-.169,18.509.043,9.348.286,11.953-8.136,11.953H148.7c-8.425,0-8.182-2.605-8.136-11.953.03-6.157-.172-12.331-.172-18.509V69.386l0,0V64.517c0-8.725,2.516-8.358,11.543-8.427l43.575-.325c4.369-.03,8.684-1.1,12.084-4.067a14.134,14.134,0,0,0,3.794-5.632,24.106,24.106,0,0,0,1.388-8.771V25H200.389v9.412c0,8.727-2.518,8.372-11.548,8.427l-37.175.238c-6.262,0-13.4-.286-18.483,4.154a14.227,14.227,0,0,0-3.792,5.634A24.164,24.164,0,0,0,128,61.639v41.027h0V128.8c0,6.486-.275,13.878,4.012,19.145a13.7,13.7,0,0,0,5.437,3.927,21.91,21.91,0,0,0,8.468,1.439h48.439a21.91,21.91,0,0,0,8.468-1.439,13.746,13.746,0,0,0,5.439-3.927c4.285-5.268,4.007-12.659,4.007-19.145Z" transform="translate(0 0)"/></g></svg>