<svg xmlns="http://www.w3.org/2000/svg" width="115.845" height="30.584" viewBox="0 0 115.845 30.584"><defs><style>.a,.b{fill:#fff;}.a{fill-rule:evenodd;}</style></defs><g transform="translate(-490.11 -850.925)"><g transform="translate(490.11 850.925)"><path class="a" d="M139.072,65.481a5.238,5.238,0,0,1,0-2.027,15.253,15.253,0,0,0,7.905,0,5.24,5.24,0,0,1,0,2.027A16.953,16.953,0,0,1,139.072,65.481Z" transform="translate(-132.98 -42.453)"/><path class="a" d="M137.913,51.621a6.573,6.573,0,0,1-.075-.812c-.01-.291-.015-.552-.015-.78s0-.489.015-.781a5.712,5.712,0,0,1,.075-.78q.392-.061.844-.093c.3-.021.562-.031.783-.031s.482.01.783.031.573.052.814.093a5.625,5.625,0,0,1,.075.78q.015.437.015.781c0,.228-.005.489-.015.78a6.47,6.47,0,0,1-.075.812,7.811,7.811,0,0,1-.8.093c-.291.021-.548.032-.768.032q-.361,0-.813-.032T137.913,51.621Z" transform="translate(-132.458 -35.595)"/><path class="a" d="M148.815,51.621a6.474,6.474,0,0,1-.075-.812c-.011-.291-.015-.552-.015-.78s0-.489.015-.781a5.631,5.631,0,0,1,.075-.78c.261-.041.543-.072.844-.093s.563-.031.783-.031.483.01.784.031.573.052.814.093a5.546,5.546,0,0,1,.075.78c.011.292.015.552.015.781s0,.489-.015.78a6.369,6.369,0,0,1-.075.812,7.793,7.793,0,0,1-.8.093q-.437.032-.768.032-.362,0-.814-.032C149.358,51.695,149.076,51.663,148.815,51.621Z" transform="translate(-137.406 -35.595)"/><path class="a" d="M148.088,37.864a6.591,6.591,0,0,0-.738-.094q-.407-.031-.739-.031c-.22,0-.467.01-.738.031a6.63,6.63,0,0,0-.739.094v7.4c0,1.472-.047,2.944-.04,4.412.01,2.228.068,2.849-1.939,2.849h-10.22c-2.008,0-1.95-.621-1.939-2.849.007-1.467-.041-2.939-.041-4.412V35.58h0v-1.16c0-2.08.6-1.992,2.751-2.009l10.387-.078a4.308,4.308,0,0,0,2.88-.969,3.369,3.369,0,0,0,.9-1.342,5.746,5.746,0,0,0,.331-2.091V25h-2.952v2.244c0,2.08-.6,2-2.753,2.009l-8.861.057c-1.493,0-3.194-.068-4.406.99a3.391,3.391,0,0,0-.9,1.343A5.76,5.76,0,0,0,128,33.733v9.779h0v6.229c0,1.546-.066,3.308.956,4.564a3.267,3.267,0,0,0,1.3.936,5.223,5.223,0,0,0,2.019.343h11.546a5.223,5.223,0,0,0,2.019-.343,3.277,3.277,0,0,0,1.3-.936c1.021-1.256.955-3.017.955-4.564Z" transform="translate(-128 -25)"/></g><g transform="translate(520.281 857.462)"><g transform="translate(52.557 0.034)"><path class="b" d="M36.051,11.809a1,1,0,0,0,.351.227,4.28,4.28,0,0,1,2.56,2.952,7.338,7.338,0,0,1,.289,2v2.539a7.733,7.733,0,0,0,.186,1.693,2.626,2.626,0,0,0,.6,1.28l.062.062c.165.268.083.434-.227.454h-.454c-.7,0-1.424-.021-2.126,0a.7.7,0,0,1-.681-.372,3.935,3.935,0,0,1-.516-1.713c-.124-1.239-.083-2.5-.083-3.736a5.788,5.788,0,0,0-.268-1.775,3.992,3.992,0,0,0-.6-1.135,2.711,2.711,0,0,0-2.168-1.156c-1.321-.041-2.663,0-3.984-.021-.227,0-.351.062-.33.31V22.77c0,.165-.083.248-.268.248H25.709c-.165,0-.268-.062-.248-.248V.6c0-.661-.062-.6.578-.6h6.255a8.7,8.7,0,0,1,2.642.372,5.548,5.548,0,0,1,4.129,4.872,7.7,7.7,0,0,1-.041,2.663,5.284,5.284,0,0,1-2.436,3.509c-.083.062-.186.1-.268.165A.926.926,0,0,1,36.051,11.809Zm-7.37-5.243v3.8c0,.186.041.33.268.31,1.28-.021,2.56.062,3.84-.041A3.047,3.047,0,0,0,35.721,8.4a5.793,5.793,0,0,0-.062-3.736,3.036,3.036,0,0,0-2.6-2.147,3.89,3.89,0,0,0-.7-.041H28.888a.2.2,0,0,0-.227.227v.372C28.682,4.253,28.682,5.409,28.682,6.565Z" transform="translate(-25.459 0.001)"/></g><g transform="translate(33.193 0.056)"><path class="b" d="M16.082,8.309V.34c-.021-.227.062-.33.31-.33.867.021,1.734,0,2.6,0,.186,0,.289.062.289.268v14.9a8.526,8.526,0,0,0,.372,2.6,4.922,4.922,0,0,0,1.28,2.106,4.147,4.147,0,0,0,5.574-.021,5.32,5.32,0,0,0,1.569-3.117,9.438,9.438,0,0,0,.1-1.713V.609c0-.64-.062-.578.6-.6h2.271c.351,0,.351,0,.372.351V15.183a9.64,9.64,0,0,1-.454,3.179A6.952,6.952,0,0,1,25.1,23.234a8.666,8.666,0,0,1-3.571-.145,6.862,6.862,0,0,1-5.2-5.594,10.758,10.758,0,0,1-.206-2.291C16.082,12.912,16.082,10.6,16.082,8.309Z" transform="translate(-16.079 -0.01)"/></g><g transform="translate(14.27 0)"><path class="b" d="M23.65,23.036a3.3,3.3,0,0,1-.784.021H20.739c-.268,0-.372-.083-.454-.351-.454-1.631-.929-3.262-1.4-4.892-.206-.681-.041-.6-.805-.6H12.3c-.454,0-.434-.041-.557.413-.475,1.651-.95,3.324-1.424,4.975-.124.434-.124.434-.557.434h-2.5c-.392,0-.392,0-.289-.392.723-2.312,1.424-4.665,2.126-7.019L13.617.514a.931.931,0,0,0,.062-.227c.041-.206.165-.268.372-.268h1.9c.289,0,.64-.1.867.041.227.165.227.516.31.805q3.22,10.807,6.441,21.634C23.608,22.685,23.712,22.85,23.65,23.036ZM15.31,5.344a.355.355,0,0,0-.145.227c-.846,2.911-1.672,5.842-2.518,8.753-.062.33-.041.351.289.351h4.81a.878.878,0,0,0,.227-.041C17.911,14.118,15.5,5.675,15.31,5.344Z" transform="translate(-6.912 0.017)"/></g><g transform="translate(68.904 0.056)"><path class="b" d="M50.145,23.007a3.881,3.881,0,0,1-.846.041H47.255c-.392,0-.392,0-.516-.413-.454-1.61-.908-3.2-1.383-4.81-.206-.681-.041-.6-.784-.619h-5.7c-.537,0-.516-.1-.681.5-.454,1.631-.929,3.262-1.4,4.892-.124.454-.062.434-.6.434H33.734c-.392,0-.413-.021-.289-.392.619-2.085,1.259-4.17,1.879-6.234,1.59-5.264,3.158-10.549,4.748-15.813.021-.083.062-.165.083-.268.041-.248.186-.31.434-.31.805.021,1.61,0,2.415,0,.351,0,.351,0,.454.372.537,1.8,1.073,3.613,1.61,5.409,1.651,5.574,3.324,11.147,4.975,16.7A1.437,1.437,0,0,1,50.145,23.007ZM41.867,5.253c-.227.351-2.7,8.9-2.725,9.372H44.51C43.622,11.488,42.755,8.412,41.867,5.253Z" transform="translate(-33.377 -0.01)"/></g><g transform="translate(0 0.056)"><path class="b" d="M0,11.529V.423C0,.031,0,.01.414.01h2.5c.227,0,.351.062.33.31a2.756,2.756,0,0,0,0,.413v19.24c0,.619-.062.578.578.578h8.464c.186,0,.289.062.289.268v1.94c0,.165-.062.268-.248.248H.558c-.619,0-.557.041-.557-.578Q0,17.01,0,11.529Z" transform="translate(0.001 -0.01)"/></g></g></g></svg>